<svg width="183" height="88" viewBox="0 0 183 88" fill="none" xmlns="http://www.w3.org/2000/svg">
<path opacity="0.3" d="M3.70117 77.5566C3.79232 78.2142 3.97135 78.7057 4.23828 79.0312C4.72656 79.6237 5.56315 79.9199 6.74805 79.9199C7.45768 79.9199 8.03385 79.8418 8.47656 79.6855C9.31641 79.3861 9.73633 78.8294 9.73633 78.0156C9.73633 77.5404 9.52799 77.1725 9.11133 76.9121C8.69466 76.6582 8.04036 76.4336 7.14844 76.2383L5.625 75.8965C4.1276 75.5579 3.09245 75.1901 2.51953 74.793C1.54948 74.1289 1.06445 73.0905 1.06445 71.6777C1.06445 70.3887 1.5332 69.3177 2.4707 68.4648C3.4082 67.612 4.78516 67.1855 6.60156 67.1855C8.11849 67.1855 9.41081 67.5892 10.4785 68.3965C11.5527 69.1973 12.1159 70.3626 12.168 71.8926H9.27734C9.22526 71.0267 8.84766 70.4115 8.14453 70.0469C7.67578 69.806 7.0931 69.6855 6.39648 69.6855C5.62174 69.6855 5.00326 69.8418 4.54102 70.1543C4.07878 70.4668 3.84766 70.903 3.84766 71.4629C3.84766 71.9772 4.07552 72.3613 4.53125 72.6152C4.82422 72.7845 5.44922 72.9831 6.40625 73.2109L8.88672 73.8066C9.97396 74.0671 10.7943 74.4154 11.3477 74.8516C12.207 75.5286 12.6367 76.5085 12.6367 77.791C12.6367 79.1061 12.1322 80.1999 11.123 81.0723C10.1204 81.9382 8.70117 82.3711 6.86523 82.3711C4.99023 82.3711 3.51562 81.9447 2.44141 81.0918C1.36719 80.2324 0.830078 79.054 0.830078 77.5566H3.70117ZM18.8379 73.3672C18.1934 73.3672 17.6921 73.569 17.334 73.9727C16.9824 74.3763 16.7611 74.9232 16.6699 75.6133H20.9961C20.9505 74.8776 20.7259 74.321 20.3223 73.9434C19.9251 73.5592 19.4303 73.3672 18.8379 73.3672ZM18.8379 71.0723C19.7233 71.0723 20.5208 71.2383 21.2305 71.5703C21.9401 71.9023 22.526 72.4264 22.9883 73.1426C23.4049 73.7741 23.6751 74.5065 23.7988 75.3398C23.8704 75.8281 23.8997 76.5312 23.8867 77.4492H16.6016C16.6406 78.5169 16.9759 79.2656 17.6074 79.6953C17.9915 79.9622 18.4538 80.0957 18.9941 80.0957C19.5671 80.0957 20.0326 79.9329 20.3906 79.6074C20.5859 79.4316 20.7585 79.1875 20.9082 78.875H23.75C23.6784 79.5065 23.3496 80.1478 22.7637 80.7988C21.8522 81.834 20.5762 82.3516 18.9355 82.3516C17.5814 82.3516 16.3867 81.9154 15.3516 81.043C14.3164 80.1706 13.7988 78.7513 13.7988 76.7852C13.7988 74.9427 14.2643 73.5299 15.1953 72.5469C16.1328 71.5638 17.347 71.0723 18.8379 71.0723ZM28.6133 82H25.8301V67.6055H28.6133V82ZM35.5371 73.3672C34.8926 73.3672 34.3913 73.569 34.0332 73.9727C33.6816 74.3763 33.4603 74.9232 33.3691 75.6133H37.6953C37.6497 74.8776 37.4251 74.321 37.0215 73.9434C36.6243 73.5592 36.1296 73.3672 35.5371 73.3672ZM35.5371 71.0723C36.4225 71.0723 37.2201 71.2383 37.9297 71.5703C38.6393 71.9023 39.2253 72.4264 39.6875 73.1426C40.1042 73.7741 40.3743 74.5065 40.498 75.3398C40.5697 75.8281 40.599 76.5312 40.5859 77.4492H33.3008C33.3398 78.5169 33.6751 79.2656 34.3066 79.6953C34.6908 79.9622 35.153 80.0957 35.6934 80.0957C36.2663 80.0957 36.7318 79.9329 37.0898 79.6074C37.2852 79.4316 37.4577 79.1875 37.6074 78.875H40.4492C40.3776 79.5065 40.0488 80.1478 39.4629 80.7988C38.5514 81.834 37.2754 82.3516 35.6348 82.3516C34.2806 82.3516 33.0859 81.9154 32.0508 81.043C31.0156 80.1706 30.498 78.7513 30.498 76.7852C30.498 74.9427 30.9635 73.5299 31.8945 72.5469C32.832 71.5638 34.0462 71.0723 35.5371 71.0723ZM48.8281 75.1738C48.776 74.7767 48.6426 74.4186 48.4277 74.0996C48.1152 73.6699 47.6302 73.4551 46.9727 73.4551C46.0352 73.4551 45.3939 73.9206 45.0488 74.8516C44.8665 75.3464 44.7754 76.0039 44.7754 76.8242C44.7754 77.6055 44.8665 78.2337 45.0488 78.709C45.3809 79.5944 46.0059 80.0371 46.9238 80.0371C47.5749 80.0371 48.0371 79.8613 48.3105 79.5098C48.584 79.1582 48.75 78.7025 48.8086 78.1426H51.6504C51.5853 78.9889 51.2793 79.7897 50.7324 80.5449C49.86 81.7624 48.5677 82.3711 46.8555 82.3711C45.1432 82.3711 43.8835 81.8633 43.0762 80.8477C42.2689 79.832 41.8652 78.5137 41.8652 76.8926C41.8652 75.0632 42.3112 73.6406 43.2031 72.625C44.0951 71.6094 45.3255 71.1016 46.8945 71.1016C48.2292 71.1016 49.3197 71.401 50.166 72C51.0189 72.599 51.5234 73.6569 51.6797 75.1738H48.8281ZM56.4648 70.0859H53.6426V67.5176H56.4648V70.0859ZM53.6426 71.3555H56.4648V82H53.6426V71.3555ZM63.9453 80.0371C64.7591 80.0371 65.3841 79.7474 65.8203 79.168C66.2565 78.5885 66.4746 77.765 66.4746 76.6973C66.4746 75.6296 66.2565 74.8092 65.8203 74.2363C65.3841 73.6569 64.7591 73.3672 63.9453 73.3672C63.1315 73.3672 62.5033 73.6569 62.0605 74.2363C61.6243 74.8092 61.4062 75.6296 61.4062 76.6973C61.4062 77.765 61.6243 78.5885 62.0605 79.168C62.5033 79.7474 63.1315 80.0371 63.9453 80.0371ZM69.3945 76.6973C69.3945 78.2598 68.9453 79.5977 68.0469 80.7109C67.1484 81.8177 65.7845 82.3711 63.9551 82.3711C62.1257 82.3711 60.7617 81.8177 59.8633 80.7109C58.9648 79.5977 58.5156 78.2598 58.5156 76.6973C58.5156 75.1608 58.9648 73.8294 59.8633 72.7031C60.7617 71.5768 62.1257 71.0137 63.9551 71.0137C65.7845 71.0137 67.1484 71.5768 68.0469 72.7031C68.9453 73.8294 69.3945 75.1608 69.3945 76.6973ZM77.2949 71.1016C78.3952 71.1016 79.2936 71.3913 79.9902 71.9707C80.6934 72.5436 81.0449 73.4974 81.0449 74.832V82H78.1934V75.5254C78.1934 74.9655 78.1185 74.5358 77.9688 74.2363C77.6953 73.6895 77.1745 73.416 76.4062 73.416C75.4622 73.416 74.8145 73.8164 74.4629 74.6172C74.2806 75.0404 74.1895 75.5807 74.1895 76.2383V82H71.416V71.375H74.1016V72.9277C74.4596 72.3809 74.7982 71.987 75.1172 71.7461C75.6901 71.3164 76.416 71.1016 77.2949 71.1016ZM89.4922 76.8242C89.3164 76.9349 89.1374 77.026 88.9551 77.0977C88.7793 77.1628 88.5352 77.2246 88.2227 77.2832L87.5977 77.4004C87.0117 77.5046 86.5918 77.6315 86.3379 77.7812C85.9082 78.0352 85.6934 78.429 85.6934 78.9629C85.6934 79.4382 85.8236 79.7832 86.084 79.998C86.3509 80.2064 86.6732 80.3105 87.0508 80.3105C87.6497 80.3105 88.1999 80.1348 88.7012 79.7832C89.209 79.4316 89.4727 78.7904 89.4922 77.8594V76.8242ZM87.8027 75.5254C88.3171 75.4603 88.6849 75.3789 88.9062 75.2812C89.3034 75.112 89.502 74.8483 89.502 74.4902C89.502 74.054 89.349 73.7546 89.043 73.5918C88.7435 73.4225 88.3008 73.3379 87.7148 73.3379C87.0573 73.3379 86.5918 73.5007 86.3184 73.8262C86.123 74.0671 85.9928 74.3926 85.9277 74.8027H83.2422C83.3008 73.8717 83.5612 73.1068 84.0234 72.5078C84.7591 71.5703 86.0221 71.1016 87.8125 71.1016C88.9779 71.1016 90.013 71.3327 90.918 71.7949C91.8229 72.2572 92.2754 73.1296 92.2754 74.4121V79.2949C92.2754 79.6335 92.2819 80.0436 92.2949 80.5254C92.3145 80.89 92.3698 81.1374 92.4609 81.2676C92.5521 81.3978 92.6888 81.5052 92.8711 81.5898V82H89.8438C89.7591 81.7852 89.7005 81.5833 89.668 81.3945C89.6354 81.2057 89.6094 80.9909 89.5898 80.75C89.2057 81.1667 88.763 81.5215 88.2617 81.8145C87.6628 82.1595 86.9857 82.332 86.2305 82.332C85.2669 82.332 84.4694 82.0586 83.8379 81.5117C83.2129 80.9583 82.9004 80.1771 82.9004 79.168C82.9004 77.8594 83.4049 76.9121 84.4141 76.3262C84.9674 76.0072 85.7812 75.7793 86.8555 75.6426L87.8027 75.5254ZM100.537 71.1016C100.589 71.1016 100.632 71.1048 100.664 71.1113C100.703 71.1113 100.785 71.1146 100.908 71.1211V73.9727C100.732 73.9531 100.576 73.9401 100.439 73.9336C100.303 73.9271 100.192 73.9238 100.107 73.9238C98.9876 73.9238 98.2357 74.2884 97.8516 75.0176C97.6367 75.4277 97.5293 76.0592 97.5293 76.9121V82H94.7266V71.3555H97.3828V73.2109C97.8125 72.5013 98.1868 72.0163 98.5059 71.7559C99.0267 71.3197 99.7038 71.1016 100.537 71.1016ZM110.977 70.0859H108.154V67.5176H110.977V70.0859ZM108.154 71.3555H110.977V82H108.154V71.3555ZM125.576 71.1211C126.045 71.1211 126.507 71.2122 126.963 71.3945C127.419 71.5768 127.832 71.8958 128.203 72.3516C128.503 72.7227 128.704 73.1784 128.809 73.7188C128.874 74.0768 128.906 74.6009 128.906 75.291L128.887 82H126.035V75.2227C126.035 74.819 125.97 74.487 125.84 74.2266C125.592 73.7318 125.137 73.4844 124.473 73.4844C123.704 73.4844 123.174 73.8034 122.881 74.4414C122.731 74.7799 122.656 75.1868 122.656 75.6621V82H119.854V75.6621C119.854 75.0306 119.788 74.5716 119.658 74.2852C119.424 73.7708 118.965 73.5137 118.281 73.5137C117.487 73.5137 116.953 73.7708 116.68 74.2852C116.53 74.5781 116.455 75.0143 116.455 75.5938V82H113.633V71.375H116.338V72.9277C116.683 72.3743 117.008 71.9805 117.314 71.7461C117.855 71.3294 118.555 71.1211 119.414 71.1211C120.228 71.1211 120.885 71.3001 121.387 71.6582C121.79 71.9902 122.096 72.4167 122.305 72.9375C122.669 72.3125 123.122 71.8535 123.662 71.5605C124.235 71.2676 124.873 71.1211 125.576 71.1211ZM137.344 76.8242C137.168 76.9349 136.989 77.026 136.807 77.0977C136.631 77.1628 136.387 77.2246 136.074 77.2832L135.449 77.4004C134.863 77.5046 134.443 77.6315 134.189 77.7812C133.76 78.0352 133.545 78.429 133.545 78.9629C133.545 79.4382 133.675 79.7832 133.936 79.998C134.202 80.2064 134.525 80.3105 134.902 80.3105C135.501 80.3105 136.051 80.1348 136.553 79.7832C137.061 79.4316 137.324 78.7904 137.344 77.8594V76.8242ZM135.654 75.5254C136.169 75.4603 136.536 75.3789 136.758 75.2812C137.155 75.112 137.354 74.8483 137.354 74.4902C137.354 74.054 137.201 73.7546 136.895 73.5918C136.595 73.4225 136.152 73.3379 135.566 73.3379C134.909 73.3379 134.443 73.5007 134.17 73.8262C133.975 74.0671 133.844 74.3926 133.779 74.8027H131.094C131.152 73.8717 131.413 73.1068 131.875 72.5078C132.611 71.5703 133.874 71.1016 135.664 71.1016C136.829 71.1016 137.865 71.3327 138.77 71.7949C139.674 72.2572 140.127 73.1296 140.127 74.4121V79.2949C140.127 79.6335 140.133 80.0436 140.146 80.5254C140.166 80.89 140.221 81.1374 140.312 81.2676C140.404 81.3978 140.54 81.5052 140.723 81.5898V82H137.695C137.611 81.7852 137.552 81.5833 137.52 81.3945C137.487 81.2057 137.461 80.9909 137.441 80.75C137.057 81.1667 136.615 81.5215 136.113 81.8145C135.514 82.1595 134.837 82.332 134.082 82.332C133.118 82.332 132.321 82.0586 131.689 81.5117C131.064 80.9583 130.752 80.1771 130.752 79.168C130.752 77.8594 131.257 76.9121 132.266 76.3262C132.819 76.0072 133.633 75.7793 134.707 75.6426L135.654 75.5254ZM147.178 79.7148C147.829 79.7148 148.379 79.4707 148.828 78.9824C149.277 78.4876 149.502 77.7031 149.502 76.6289C149.502 75.6198 149.287 74.8516 148.857 74.3242C148.434 73.7969 147.865 73.5332 147.148 73.5332C146.172 73.5332 145.498 73.9922 145.127 74.9102C144.932 75.3984 144.834 76.0007 144.834 76.7168C144.834 77.3353 144.938 77.8854 145.146 78.3672C145.524 79.2656 146.201 79.7148 147.178 79.7148ZM146.484 71.1016C147.018 71.1016 147.484 71.1829 147.881 71.3457C148.558 71.6257 149.105 72.14 149.521 72.8887V71.3555H152.227V81.4531C152.227 82.8268 151.995 83.862 151.533 84.5586C150.739 85.7565 149.215 86.3555 146.963 86.3555C145.602 86.3555 144.492 86.0885 143.633 85.5547C142.773 85.0208 142.298 84.2233 142.207 83.1621H145.234C145.312 83.4876 145.439 83.722 145.615 83.8652C145.915 84.1191 146.419 84.2461 147.129 84.2461C148.132 84.2461 148.802 83.9108 149.141 83.2402C149.362 82.8105 149.473 82.0879 149.473 81.0723V80.3887C149.206 80.8444 148.919 81.1862 148.613 81.4141C148.06 81.8372 147.34 82.0488 146.455 82.0488C145.088 82.0488 143.994 81.5703 143.174 80.6133C142.36 79.6497 141.953 78.3477 141.953 76.707C141.953 75.125 142.347 73.7969 143.135 72.7227C143.923 71.6419 145.039 71.1016 146.484 71.1016ZM159.033 73.3672C158.389 73.3672 157.887 73.569 157.529 73.9727C157.178 74.3763 156.956 74.9232 156.865 75.6133H161.191C161.146 74.8776 160.921 74.321 160.518 73.9434C160.12 73.5592 159.626 73.3672 159.033 73.3672ZM159.033 71.0723C159.919 71.0723 160.716 71.2383 161.426 71.5703C162.135 71.9023 162.721 72.4264 163.184 73.1426C163.6 73.7741 163.87 74.5065 163.994 75.3398C164.066 75.8281 164.095 76.5312 164.082 77.4492H156.797C156.836 78.5169 157.171 79.2656 157.803 79.6953C158.187 79.9622 158.649 80.0957 159.189 80.0957C159.762 80.0957 160.228 79.9329 160.586 79.6074C160.781 79.4316 160.954 79.1875 161.104 78.875H163.945C163.874 79.5065 163.545 80.1478 162.959 80.7988C162.048 81.834 160.771 82.3516 159.131 82.3516C157.777 82.3516 156.582 81.9154 155.547 81.043C154.512 80.1706 153.994 78.7513 153.994 76.7852C153.994 74.9427 154.46 73.5299 155.391 72.5469C156.328 71.5638 157.542 71.0723 159.033 71.0723ZM177.861 71.1211C178.33 71.1211 178.792 71.2122 179.248 71.3945C179.704 71.5768 180.117 71.8958 180.488 72.3516C180.788 72.7227 180.99 73.1784 181.094 73.7188C181.159 74.0768 181.191 74.6009 181.191 75.291L181.172 82H178.32V75.2227C178.32 74.819 178.255 74.487 178.125 74.2266C177.878 73.7318 177.422 73.4844 176.758 73.4844C175.99 73.4844 175.459 73.8034 175.166 74.4414C175.016 74.7799 174.941 75.1868 174.941 75.6621V82H172.139V75.6621C172.139 75.0306 172.074 74.5716 171.943 74.2852C171.709 73.7708 171.25 73.5137 170.566 73.5137C169.772 73.5137 169.238 73.7708 168.965 74.2852C168.815 74.5781 168.74 75.0143 168.74 75.5938V82H165.918V71.375H168.623V72.9277C168.968 72.3743 169.294 71.9805 169.6 71.7461C170.14 71.3294 170.84 71.1211 171.699 71.1211C172.513 71.1211 173.171 71.3001 173.672 71.6582C174.076 71.9902 174.382 72.4167 174.59 72.9375C174.954 72.3125 175.407 71.8535 175.947 71.5605C176.52 71.2676 177.158 71.1211 177.861 71.1211Z" fill="white"/>
</svg>
